<?xml version="1.0" encoding="UTF-8"?>
<svg id="Capa_2" xmlns="http://www.w3.org/2000/svg" xmlns:xlink="http://www.w3.org/1999/xlink" viewBox="0 0 611.08 205.71">
  <defs>
    <style>
      .cls-1 {
        letter-spacing: .49em;
      }

      .cls-2 {
        letter-spacing: .48em;
      }

      .cls-3, .cls-4 {
        fill: #ffe217;
      }

      .cls-5 {
        letter-spacing: .5em;
      }

      .cls-4 {
        font-family: Montserrat-ExtraBold, Montserrat;
        font-size: 34.3px;
        font-weight: 700;
      }
    </style>
    <symbol id="WPM" viewBox="0 0 611.08 205.71">
      <g>
        <text class="cls-4" transform="translate(0 196.52)"><tspan class="cls-2" x="0" y="0">W</tspan><tspan class="cls-5" x="56.94" y="0">ORK</tspan><tspan class="cls-1" x="188.59" y="0">P</tspan><tspan class="cls-5" x="230.68" y="0">ROMAN</tspan><tspan class="cls-1" x="458.17" y="0">A</tspan><tspan class="cls-5" x="501.94" y="0">GER</tspan></text>
        <g>
          <path class="cls-3" d="M181.83,1.43l-3.64,116.84h4.93c5-19.48,9.37-36.06,12.79-48.89,8.79-32.93,11.23-40.8,18.35-48.64,5.26-5.8,18.65-17.74,48.18-19.31l-52.95,154.36h-64.32l5.79-98.83-28.73,98.83H57.92c.44-45.16.88-90.31,1.32-135.47l.18-18.89h42.02c-.21,6.37-.42,12.75-.63,19.12-.44,13.22-.87,26.43-1.31,39.65-.64,19.36-1.28,38.71-1.92,58.07h4.93L140.03,1.43h41.81Z"/>
          <path class="cls-3" d="M328.68,108.84h-25.51c-.67,3.33-1.63,8.34-2.58,14.51-1.35,8.67-1.23,10.17-2.45,13.74-1.06,3.12-3.31,9.46-9.49,14.76-6.81,5.84-14.21,6.83-15.72,7.01-8.17.96-14.39-1.87-16.71-3.07,9.08-51.45,18.15-102.91,27.23-154.36h65.39c16.15,0,27.66,3.72,34.52,11.15,5,5.72,7.5,13.01,7.5,21.87,0,3-.29,6.15-.86,9.43l-4.29,24.23c-2.14,11.87-8.44,21.62-18.87,29.26-10.43,7.65-23.15,11.47-38.16,11.47ZM335.33,33.44h-19.29l-7.08,40.52h19.08c11.72,0,18.51-5.22,20.37-15.65l1.5-8.79c.28-1.29.43-3,.43-5.15s-1.07-4.5-3.22-7.07c-2.14-2.57-6.08-3.86-11.79-3.86Z"/>
          <path class="cls-3" d="M460.53,0l22.94,73.96L532.78,0h40.52c-3.98,22.55-7.96,45.1-11.93,67.66-2.5,14.16-4.99,28.32-7.49,42.48-3.01,17.04-4.51,25.56-4.51,25.56-1.61,3.21-5.58,10-13.6,14.84-12.72,7.66-25.83,4.52-28.49,3.82,5.15-29.01,10.29-58.03,15.44-87.04l-33.02,51.88h-28.08l-14.58-51.88c-2.51,14.14-5.02,28.29-7.52,42.43-1.53,8.61-3.05,17.23-4.58,25.84-2.01,3.25-6.94,10.24-16.15,14.95-11.43,5.84-22.17,4.45-25.76,3.82,9.08-51.45,18.15-102.91,27.23-154.36h40.3Z"/>
          <path class="cls-3" d="M285.21,153.48"/>
          <path class="cls-3" d="M317.49,145.09"/>
          <path class="cls-3" d="M250.64,93.84"/>
        </g>
        <text/>
      </g>
    </symbol>
  </defs>
  <g id="_x31_080_x__x_1080_px_Logo_Set_2">
    <g id="Text">
      <use width="611.08" height="205.71" transform="translate(0)" xlink:href="#WPM"/>
    </g>
  </g>
</svg>